<mxfile host="app.diagrams.net" modified="2024-06-08T16:13:23.564Z" agent="Mozilla/5.0 (Windows NT 10.0; Win64; x64) AppleWebKit/537.36 (KHTML, like Gecko) Chrome/124.0.0.0 YaBrowser/24.6.0.0 Safari/537.36" version="24.2.1" etag="t_UBI7VY_PboyLGtVAS1" type="github">
  <diagram name="Страница — 1" id="gfFLgYDy10Q48hrOroUY">
    <mxGraphModel>
      <root>
        <mxCell id="0" />
        <mxCell id="1" parent="0" />
      </root>
    </mxGraphModel>
  </diagram>
</mxfile>
